<mxfile host="65bd71144e" pages="2">
    <diagram id="0UOGrR76llHBvDdfcNB3" name="Page-1">
        <mxGraphModel dx="551" dy="437" grid="1" gridSize="10" guides="1" tooltips="1" connect="1" arrows="1" fold="1" page="1" pageScale="1" pageWidth="827" pageHeight="1169" math="0" shadow="0">
            <root>
                <mxCell id="koQ3gRqe0wAsNyKgDEFW-0"/>
                <mxCell id="koQ3gRqe0wAsNyKgDEFW-1" parent="koQ3gRqe0wAsNyKgDEFW-0"/>
                <mxCell id="7eI-2Ih3Ym2sbF8MfAuA-0" style="edgeStyle=orthogonalEdgeStyle;rounded=0;orthogonalLoop=1;jettySize=auto;html=1;" parent="koQ3gRqe0wAsNyKgDEFW-1" source="Laew47YEd-wdaoHF6M3l-0" edge="1">
                    <mxGeometry relative="1" as="geometry">
                        <mxPoint x="380" y="160" as="targetPoint"/>
                    </mxGeometry>
                </mxCell>
                <mxCell id="Laew47YEd-wdaoHF6M3l-0" value="a, b, c" style="rounded=0;whiteSpace=wrap;html=1;" parent="koQ3gRqe0wAsNyKgDEFW-1" vertex="1">
                    <mxGeometry x="320" y="40" width="120" height="60" as="geometry"/>
                </mxCell>
                <mxCell id="7eI-2Ih3Ym2sbF8MfAuA-3" style="edgeStyle=orthogonalEdgeStyle;rounded=0;orthogonalLoop=1;jettySize=auto;html=1;" parent="koQ3gRqe0wAsNyKgDEFW-1" source="7eI-2Ih3Ym2sbF8MfAuA-2" edge="1">
                    <mxGeometry relative="1" as="geometry">
                        <mxPoint x="380" y="280" as="targetPoint"/>
                    </mxGeometry>
                </mxCell>
                <mxCell id="7eI-2Ih3Ym2sbF8MfAuA-2" value="d = a + b" style="rounded=0;whiteSpace=wrap;html=1;" parent="koQ3gRqe0wAsNyKgDEFW-1" vertex="1">
                    <mxGeometry x="320" y="160" width="120" height="60" as="geometry"/>
                </mxCell>
                <mxCell id="7eI-2Ih3Ym2sbF8MfAuA-5" style="edgeStyle=orthogonalEdgeStyle;rounded=0;orthogonalLoop=1;jettySize=auto;html=1;" parent="koQ3gRqe0wAsNyKgDEFW-1" source="7eI-2Ih3Ym2sbF8MfAuA-4" edge="1">
                    <mxGeometry relative="1" as="geometry">
                        <mxPoint x="380" y="400" as="targetPoint"/>
                    </mxGeometry>
                </mxCell>
                <mxCell id="7eI-2Ih3Ym2sbF8MfAuA-4" value="e = d + c" style="rounded=0;whiteSpace=wrap;html=1;" parent="koQ3gRqe0wAsNyKgDEFW-1" vertex="1">
                    <mxGeometry x="320" y="280" width="120" height="60" as="geometry"/>
                </mxCell>
                <mxCell id="7eI-2Ih3Ym2sbF8MfAuA-6" value="return e / 3" style="rounded=0;whiteSpace=wrap;html=1;" parent="koQ3gRqe0wAsNyKgDEFW-1" vertex="1">
                    <mxGeometry x="320" y="400" width="120" height="60" as="geometry"/>
                </mxCell>
            </root>
        </mxGraphModel>
    </diagram>
</mxfile>